<?xml version="1.0" standalone="no"?>
<!DOCTYPE svg PUBLIC "-//W3C//DTD SVG 20010904//EN"
 "http://www.w3.org/TR/2001/REC-SVG-20010904/DTD/svg10.dtd">
<svg version="1.0" xmlns="http://www.w3.org/2000/svg"
 width="1154.000000pt" height="692.000000pt" viewBox="0 0 1154.000000 692.000000"
 preserveAspectRatio="xMidYMid meet">

<g transform="translate(0.000000,692.000000) scale(0.100000,-0.100000)"
fill="#000000" stroke="none">
<path d="M0 4481 c0 -1942 3 -2440 13 -2444 6 -2 24 7 39 21 26 24 32 25 215
31 225 8 660 4 793 -8 89 -9 419 -6 485 3 51 8 304 15 697 22 208 3 392 7 410
9 18 2 83 6 143 10 173 10 285 22 505 55 369 56 748 59 989 9 50 -10 301 -7
491 6 36 3 126 7 200 10 74 3 149 7 165 10 52 9 1123 11 1285 3 85 -5 327 -5
538 -2 375 6 384 7 391 27 5 14 10 -1 14 -51 6 -55 3 -81 -9 -114 -18 -48 -28
-132 -44 -378 -5 -91 -12 -171 -15 -178 -3 -7 1 -28 9 -46 14 -33 14 -34 -25
-56 -22 -12 -47 -32 -55 -46 -15 -23 -15 -26 13 -58 23 -25 32 -47 37 -91 3
-32 4 -61 0 -64 -3 -3 -193 -7 -422 -9 -229 -1 -426 -2 -437 -2 -10 -1 -25 -6
-32 -12 -9 -7 -14 -6 -19 6 -4 10 -11 13 -18 8 -6 -5 -40 -8 -76 -7 -44 2 -70
-3 -82 -12 -11 -10 -18 -11 -23 -3 -4 7 -11 8 -18 2 -12 -10 -149 -22 -297
-27 -41 -1 -124 -5 -185 -9 -363 -21 -542 -27 -973 -30 -296 -2 -332 0 -327
13 5 17 -93 18 -740 5 -192 -4 -317 -3 -370 5 -242 34 -2171 34 -2435 1 -47
-6 -253 -14 -457 -16 l-373 -5 0 -180 0 -179 64 0 c41 0 68 5 75 13 6 8 29 20
52 27 34 12 85 11 337 -3 163 -10 404 -17 534 -17 229 0 239 1 290 24 40 18
78 26 155 31 56 3 132 12 170 19 46 10 193 16 446 21 347 6 380 5 397 -10 16
-14 41 -17 152 -17 222 0 803 12 1178 24 195 6 614 15 930 19 316 4 627 13
690 18 262 24 373 24 483 2 94 -19 115 -20 243 -11 292 22 310 23 330 12 14
-7 79 -7 214 -1 107 6 305 14 440 19 135 5 317 12 404 16 154 7 159 6 150 -12
-13 -27 -10 -165 4 -191 28 -51 179 -53 275 -4 40 20 57 37 77 73 17 32 43 60
78 83 49 34 54 35 75 20 12 -8 39 -20 59 -26 25 -6 43 -19 52 -37 21 -41 45
-58 105 -76 64 -19 125 -20 187 -5 60 15 77 43 75 119 l-2 60 113 0 c62 -1
133 0 158 0 133 4 267 -1 279 -9 11 -7 10 -11 -7 -20 -48 -26 -84 -135 -60
-186 14 -31 42 -39 116 -32 106 9 142 26 210 96 50 53 62 72 62 98 l0 33 143
1 c78 0 175 4 215 8 76 7 112 -4 112 -34 0 -34 27 -68 70 -90 25 -13 53 -31
61 -41 44 -53 173 -79 244 -50 34 14 35 17 35 68 0 35 -7 64 -20 86 -21 35
-73 71 -105 73 -11 1 3 6 30 11 41 7 401 18 1073 31 l92 2 0 37 c0 34 -2 37
-37 42 -21 3 -72 2 -113 -2 -92 -9 -282 8 -288 26 -2 7 -11 18 -18 25 -8 7
-20 17 -27 23 -7 7 -21 8 -32 4 -11 -3 -56 -6 -100 -4 -193 6 -704 5 -741 -1
-40 -7 -41 -6 -48 25 -8 41 -8 163 1 214 4 28 13 41 32 50 15 6 54 31 88 55
108 76 180 224 138 287 -14 22 -15 31 -5 55 7 16 18 29 24 29 6 0 43 -25 81
-56 39 -31 96 -77 128 -102 40 -32 57 -52 57 -69 0 -36 34 -63 79 -63 22 0 43
5 46 10 12 20 26 9 45 -34 34 -81 105 -103 134 -42 20 42 20 50 2 65 -18 15
-25 55 -14 75 6 11 23 16 49 16 82 0 129 53 98 109 -18 32 -62 38 -114 17 -31
-13 -36 -14 -32 -2 3 8 9 31 13 51 8 44 -15 75 -57 75 -35 0 -89 -59 -89 -99
0 -36 -24 -56 -61 -53 -32 4 -38 -8 -14 -28 26 -22 13 -110 -16 -110 -6 0 -8
4 -4 10 3 5 -11 18 -32 29 -21 11 -77 59 -124 108 -81 83 -87 92 -104 158 -9
39 -17 79 -17 90 1 11 -6 31 -15 44 -15 24 -15 26 20 57 33 30 36 39 39 95 l3
61 50 3 c28 2 97 6 155 9 99 6 214 14 305 21 22 2 147 3 278 4 l237 1 0 2330
0 2330 -5770 0 -5770 0 0 -2439z m8255 -391 c3 -5 15 -10 26 -10 10 0 19 5 19
10 0 30 136 -8 244 -68 159 -89 239 -190 295 -372 49 -160 53 -175 50 -196 -5
-24 -120 -84 -161 -84 -20 0 -31 -6 -36 -21 -8 -20 -9 -19 -22 8 -14 26 -15
22 -21 -77 -4 -58 -10 -116 -14 -128 -8 -24 -7 -24 22 -9 16 9 35 22 42 31 15
18 130 56 183 61 l37 4 8 -47 c4 -26 7 -112 8 -192 0 -127 -2 -145 -16 -142
-9 1 -53 -30 -98 -69 -62 -54 -79 -74 -69 -81 10 -8 9 -9 -3 -5 -21 7 -39 -11
-32 -32 4 -14 3 -14 -6 -1 -8 12 -15 10 -40 -14 -17 -16 -27 -34 -24 -40 3 -6
3 -8 -2 -4 -12 11 -64 -19 -127 -73 -31 -27 -63 -49 -71 -49 -22 0 -140 39
-151 50 -16 16 -46 12 -40 -5 4 -8 1 -15 -4 -15 -6 0 -12 10 -14 22 -2 12 -9
24 -17 26 -10 3 -12 -1 -8 -17 4 -18 1 -21 -28 -21 -18 0 -48 -2 -66 -5 -31
-5 -32 -4 -10 5 20 9 22 13 11 23 -10 9 -13 9 -17 0 -8 -21 -18 -15 -19 12 -2
20 3 25 23 25 25 0 25 1 9 25 -24 37 -86 91 -126 112 -44 23 -45 24 -59 88 -7
29 -19 59 -27 65 -16 14 -20 140 -4 140 5 0 38 -20 74 -45 86 -61 139 -83 217
-91 120 -12 250 31 324 106 22 23 32 38 23 35 -27 -11 -22 10 19 78 40 67 46
118 29 237 -19 141 -52 200 -141 258 -119 77 -199 100 -291 83 -46 -9 -66 -19
-96 -48 -62 -61 -46 -70 48 -26 133 62 320 10 403 -111 68 -98 78 -234 26
-335 -33 -65 -99 -128 -149 -143 -65 -20 -244 -16 -284 5 -43 23 -52 16 -15
-11 63 -45 111 -48 270 -16 83 16 113 18 113 5 0 -5 -15 -14 -32 -21 -18 -8
-40 -19 -49 -27 -8 -7 -41 -18 -73 -24 -50 -11 -67 -9 -144 11 -153 40 -167
51 -230 180 -46 92 -47 98 -46 182 2 100 31 211 68 255 29 35 42 83 23 83 -7
0 -44 -16 -82 -35 -38 -19 -70 -33 -72 -31 -3 3 -5 27 -12 144 0 12 -5 22 -11
22 -6 0 -9 -6 -8 -12 2 -9 -7 -12 -26 -10 -27 3 -28 2 -15 -14 13 -16 12 -17
-8 -12 -17 5 -23 2 -24 -10 -4 -62 -12 -89 -31 -109 -12 -13 -23 -21 -25 -20
-11 11 64 187 80 187 5 0 6 4 3 9 -9 14 50 122 101 186 59 73 122 109 229 131
44 9 95 20 114 24 50 11 48 11 55 0z m-415 -665 c0 -8 -4 -15 -10 -15 -5 0
-10 7 -10 15 0 8 5 15 10 15 6 0 10 -7 10 -15z m1464 -237 c3 -57 9 -148 11
-203 4 -67 11 -105 20 -115 19 -21 19 -89 1 -109 -13 -14 -11 -26 9 -96 13
-44 39 -119 59 -168 29 -69 34 -91 26 -107 -6 -11 -15 -20 -20 -20 -6 0 -10
-7 -10 -15 0 -8 -4 -15 -10 -15 -5 0 -9 3 -9 8 4 23 -3 40 -18 44 -13 4 -27
36 -50 119 -41 143 -83 271 -94 285 -8 10 -12 94 -13 315 -1 54 4 107 11 120
6 13 14 32 17 42 3 11 16 17 34 17 l29 0 7 -102z m-604 68 c0 -14 -4 -28 -10
-31 -5 -3 -10 -3 -10 2 0 4 -3 18 -6 31 -5 16 -2 22 10 22 10 0 16 -9 16 -24z
m1058 12 c10 -10 15 -10 22 2 8 12 13 13 30 3 11 -7 32 -13 48 -13 15 0 34 -6
41 -12 10 -11 11 -10 6 5 -6 15 1 17 71 17 84 0 207 -32 272 -71 18 -10 37
-19 42 -19 5 0 36 -18 69 -40 33 -22 64 -40 69 -40 11 0 82 -78 82 -90 0 -5 8
-16 18 -26 14 -14 18 -40 21 -146 3 -112 1 -129 -13 -134 -10 -4 -23 1 -32 12
-15 18 -15 18 -10 1 5 -16 -20 -127 -28 -127 -2 0 -1 31 2 69 10 140 -51 228
-191 276 -90 31 -135 28 -173 -10 -13 -13 -24 -20 -24 -15 0 4 -24 34 -52 66
-68 74 -131 104 -217 104 -51 0 -62 3 -58 14 7 18 -40 13 -130 -15 -97 -30
-143 -23 -143 23 0 28 88 116 134 132 78 28 82 28 117 -1 l34 -27 -28 30 c-26
29 -27 44 -2 44 6 0 17 -6 23 -12z m103 -238 c103 -20 159 -82 159 -177 0 -82
-17 -122 -77 -179 -44 -43 -64 -54 -100 -60 -60 -9 -115 9 -165 54 -50 45 -68
85 -68 151 0 40 7 59 40 109 49 73 82 98 151 111 4 0 30 -4 60 -9z m485 -163
c68 -48 79 -72 79 -173 0 -89 -1 -93 -33 -132 -17 -23 -36 -52 -41 -65 -13
-33 -72 -44 -143 -26 -41 9 -63 23 -103 63 -68 69 -83 114 -61 190 21 70 89
157 135 172 45 14 126 1 167 -29z m-881 -47 c3 -5 1 -10 -4 -10 -6 0 -11 5
-11 10 0 6 2 10 4 10 3 0 8 -4 11 -10z m65 -62 c35 -70 82 -125 120 -140 131
-54 187 -60 280 -28 49 16 56 17 65 3 6 -9 19 -29 30 -47 26 -39 104 -92 158
-107 75 -20 202 7 194 42 -1 6 16 21 38 34 30 17 45 20 65 13 31 -10 32 -30 7
-103 -9 -27 -21 -81 -27 -119 -12 -77 -16 -87 -33 -84 -22 3 -131 -24 -211
-53 -58 -21 -98 -29 -146 -29 -89 0 -194 30 -233 68 -18 16 -56 46 -85 65 -68
46 -188 200 -248 317 -10 19 -20 165 -15 223 2 17 11 4 41 -55z m-531 -180
c17 -73 37 -176 44 -228 l13 -95 62 -6 c34 -3 65 -8 67 -11 9 -8 -26 -149 -48
-198 -43 -94 -23 -368 37 -489 31 -63 60 -90 169 -156 20 -12 64 -197 69 -290
l3 -60 -270 1 c-270 1 -354 5 -353 14 1 18 -4 21 -18 9 -13 -10 -17 -10 -25 2
-6 9 -11 11 -16 3 -11 -15 -43 -25 -43 -14 0 6 -9 6 -25 0 -14 -5 -25 -6 -25
-2 0 4 -33 7 -72 7 -85 0 -80 -11 -55 130 17 98 82 296 124 379 14 28 51 83
82 121 68 83 143 216 175 312 l23 68 12 -40 c16 -51 31 -353 24 -463 -6 -81
-7 -84 -37 -99 -17 -8 -32 -17 -34 -18 -2 -1 4 -21 13 -43 16 -40 16 -41 -8
-67 -13 -15 -37 -34 -53 -44 l-28 -17 -16 30 c-21 43 -51 45 -84 6 -48 -57
-27 -167 32 -171 9 -1 22 -2 28 -3 6 0 23 -16 38 -33 35 -41 60 -42 119 -2 92
61 147 143 147 222 0 18 14 42 41 72 22 24 38 48 35 53 -7 12 -52 29 -96 36
l-35 6 -2 257 c-2 271 -11 371 -38 425 -9 18 -20 80 -26 137 -11 116 -20 143
-31 91 -31 -154 -51 -206 -81 -216 -12 -4 -61 -8 -108 -8 l-87 -1 -6 44 c-3
24 -6 67 -6 95 0 47 4 56 56 116 31 36 60 75 64 87 9 21 194 183 210 183 4 0
22 -60 39 -132z m357 -265 c2 -29 1 -33 -6 -18 -10 23 -13 71 -4 62 4 -3 8
-23 10 -44z m204 -119 c20 -31 21 -39 9 -60 -7 -13 -16 -21 -21 -16 -8 8 -21
112 -14 112 2 0 14 -16 26 -36z m-943 -6 c-3 -8 -6 -5 -6 6 -1 11 2 17 5 13 3
-3 4 -12 1 -19z m772 -62 c19 -30 29 -76 16 -76 -3 0 -14 5 -24 12 -18 11 -18
13 -3 25 16 12 16 13 0 7 -15 -5 -18 0 -18 30 0 20 2 36 4 36 2 0 14 -15 25
-34z m-1923 -143 c0 -200 80 -341 254 -451 36 -23 73 -49 83 -59 27 -26 73
-131 108 -247 26 -83 30 -108 21 -119 -13 -15 -59 -16 -80 -3 -7 4 -17 4 -22
1 -6 -4 -17 -2 -25 5 -9 8 -15 8 -20 0 -5 -8 -11 -8 -21 1 -7 6 -21 9 -29 5
-9 -3 -14 -2 -11 3 3 5 -11 12 -32 15 -69 13 -73 15 -61 37 12 23 4 73 -16 89
-9 8 -24 6 -56 -6 l-42 -17 -21 25 c-12 14 -36 33 -53 42 -38 19 -38 20 -19
73 15 42 7 73 -19 73 -18 0 -30 93 -21 179 3 36 10 111 15 166 10 104 33 217
53 260 6 14 12 25 12 25 1 0 2 -44 2 -97z m-7431 77 c-3 -5 -11 -10 -16 -10
-6 0 -7 5 -4 10 3 6 11 10 16 10 6 0 7 -4 4 -10z m10252 -80 c1 -11 11 -29 22
-41 21 -22 34 -77 35 -144 1 -42 -13 -53 -57 -41 -33 8 -70 71 -57 96 7 12 7
21 0 25 -5 3 -10 17 -10 30 0 13 -4 27 -10 30 -19 12 -10 35 21 54 36 22 54
19 56 -9z m-2048 -757 c0 -82 -3 -143 -5 -136 -3 7 -12 9 -21 6 -13 -5 -14 1
-10 38 11 96 32 239 34 239 2 0 3 -66 2 -147z m1607 72 c10 -3 104 -213 104
-233 0 -4 -39 -9 -87 -11 -49 -2 -122 -4 -163 -5 -41 -2 -78 -1 -81 0 -9 5 6
88 31 181 l21 78 82 -3 c45 -2 87 -5 93 -7z"/>
<path d="M8162 3487 c-7 -18 -12 -52 -12 -74 0 -34 6 -46 31 -67 40 -34 70
-41 113 -26 43 14 66 44 65 85 0 16 -3 23 -6 15 -7 -19 -34 -50 -44 -50 -4 0
-3 16 2 35 18 65 -13 102 -78 92 -24 -4 -36 -2 -40 9 -8 22 -18 17 -31 -19z"/>
<path d="M7932 3265 c0 -16 2 -22 5 -12 2 9 2 23 0 30 -3 6 -5 -1 -5 -18z"/>
<path d="M8081 2828 c-72 -12 -77 -30 -6 -23 61 6 98 1 213 -30 99 -26 106
-12 10 18 -117 37 -165 45 -217 35z"/>
<path d="M9791 2951 c-28 -51 5 -121 57 -121 17 0 24 10 35 48 20 65 10 86
-41 90 -32 2 -43 -1 -51 -17z"/>
<path d="M9630 2772 c0 -20 23 -61 37 -66 10 -4 8 6 -8 32 -28 47 -29 48 -29
34z"/>
<path d="M10182 2831 c-14 -34 -5 -104 13 -118 32 -23 51 -15 76 31 l23 45
-23 24 c-28 31 -80 41 -89 18z"/>
<path d="M9630 2480 c0 -37 31 -100 50 -100 10 0 23 -7 30 -14 12 -16 71 -38
104 -41 11 -1 22 -7 24 -13 2 -7 19 -12 38 -12 20 0 37 -6 40 -14 3 -8 13 -12
25 -9 10 3 25 1 32 -5 6 -5 34 -10 62 -11 35 0 54 -6 62 -18 17 -23 27 -10 47
59 20 72 21 71 -9 64 -41 -10 -166 5 -184 23 -10 10 -28 15 -46 13 -35 -4
-105 15 -105 28 0 6 -13 10 -30 10 -16 0 -54 13 -85 30 -51 28 -55 28 -55 10z"/>
<path d="M8640 2364 c0 -8 5 -12 10 -9 6 3 10 10 10 16 0 5 -4 9 -10 9 -5 0
-10 -7 -10 -16z"/>
<path d="M10175 570 c-251 -29 -424 -40 -673 -40 -150 0 -303 4 -340 10 -174
25 -584 38 -647 20 -23 -7 -132 -14 -241 -17 -252 -7 -1213 -8 -1404 -3 -133
5 -762 -14 -940 -27 -41 -3 -439 -6 -885 -8 -562 -1 -828 -5 -869 -13 -33 -7
-96 -12 -141 -12 -45 0 -103 -6 -129 -14 -61 -18 -178 -12 -214 12 -22 15 -53
17 -227 17 -430 0 -941 -15 -1075 -31 -74 -9 -247 -19 -383 -23 -205 -5 -249
-9 -257 -21 -7 -12 -36 -15 -147 -16 -76 0 -156 -4 -178 -8 -22 -3 -101 -7
-175 -7 -74 -1 -175 -5 -225 -10 -175 -19 -468 -5 -565 27 -25 8 -118 19 -210
24 -91 5 -181 14 -200 20 -19 5 -38 10 -42 10 -5 0 -8 -103 -8 -230 l0 -230
5770 0 5770 0 0 254 0 254 -31 6 c-17 3 -116 6 -220 6 -103 0 -199 4 -214 10
-14 5 -79 10 -143 10 -287 0 -342 2 -422 16 -107 19 -244 25 -335 14z"/>
</g>
</svg>
